<?xml version="1.0" encoding="utf-8"?>
<!-- Generator: Adobe Illustrator 18.0.0, SVG Export Plug-In . SVG Version: 6.00 Build 0)  -->
<!DOCTYPE svg PUBLIC "-//W3C//DTD SVG 1.1//EN" "http://www.w3.org/Graphics/SVG/1.1/DTD/svg11.dtd">
<svg version="1.1" id="Layer_1" xmlns="http://www.w3.org/2000/svg" xmlns:xlink="http://www.w3.org/1999/xlink" x="0px" y="0px"
	 viewBox="0 0 556 422" enable-background="new 0 0 556 422" xml:space="preserve">
<g>
	<path d="M533,319c-2.7,6.6-7.7,8.7-14.7,8.7c-112.3-0.1-224.6-0.1-337-0.1c-48.3,0-96.7-0.1-145,0.1c-6.8,0-11.9-1.8-15.4-7.7
		c0-97,0-194,0-291c3.2-6.2,8.3-8.1,15.2-8.1c160.6,0.1,321.1,0.1,481.7,0c6.8,0,11.9,1.9,15.2,8.1C533,125.7,533,222.3,533,319z
		 M277,52.9c-69.6,0-139.3,0-208.9,0c-10.4,0-14.2,3.8-14.2,14.1c0,71.5,0,143,0,214.4c0,10.6,3.9,14.4,14.5,14.4
		c138.8,0,277.6,0,416.4,0c11.9,0,15.5-3.6,15.5-15.5c0-71.3,0-142.6,0-213.9c0-9.3-4.1-13.5-13.3-13.5
		C416.9,52.9,346.9,52.9,277,52.9z"/>
	<path d="M176.1,355.3c67.5,0,134.4,0,201.9,0c-5.1,10.3-12.5,17.7-21.1,24.1c-18.2,13.4-39.1,19.8-61.2,22.4
		c-27.8,3.2-54.9-0.1-80.6-11.7c-13.9-6.3-26-14.9-35-27.4c-1.2-1.6-2.1-3.4-3.2-5.1C176.7,357,176.5,356.4,176.1,355.3z"/>
</g>
</svg>
