<?xml version="1.0" encoding="utf-8"?>
<!-- Generator: Adobe Illustrator 18.0.0, SVG Export Plug-In . SVG Version: 6.00 Build 0)  -->
<!DOCTYPE svg PUBLIC "-//W3C//DTD SVG 1.1//EN" "http://www.w3.org/Graphics/SVG/1.1/DTD/svg11.dtd">
<svg version="1.1" id="Layer_1" xmlns="http://www.w3.org/2000/svg" xmlns:xlink="http://www.w3.org/1999/xlink" x="0px" y="0px"
	 viewBox="0 0 447 403.5" enable-background="new 0 0 447 403.5" xml:space="preserve">
<g>
	<path fill="#5E5E5E" d="M437.9,103.7c0,93,0,183.9,0,275.8c-142.9,0-284.7,0-427.5,0c0-91.9,0-183.1,0-275.6c19.9,0,39,0,59.7,0
		c0-20.7,0-40.2,0-61c31.3,0,60.9,0,92.3,0c0-10.8,0-20.1,0-30.4c41.5,0,81.2,0,122.6,0c0,9.8,0,19.1,0,29.7c31.3,0,60.9,0,92.1,0
		c0,20.7,0,40.1,0,61.7C398.4,103.7,418.2,103.7,437.9,103.7z M260.7,345c0-11.9,0.1-22,0-32c-0.1-9.5-5.7-11.8-14.3-11.7
		c-8.6,0.1-10.6,4.6-10.6,11.8c0.1,10.4,0,20.8,0,31.9C244.5,345,252,345,260.7,345z M309.6,345c0-12.2,0.2-22.7-0.1-33.2
		c-0.2-8.9-6.1-10.5-13.8-10.5c-8.5,0-10.9,4.2-10.8,11.6c0.1,10.4,0,20.9,0,32.1c4.2,0.4,7.5,0.9,10.7,0.9
		C299.9,345.7,304.1,345.3,309.6,345z M334,344.6c26.2,2.8,26.2,2.8,25.4-21c-0.1-3.8-0.6-7.6-0.8-11.5c-0.5-8.6-5.5-10.9-13.5-10.9
		c-8.2,0.1-11.1,3.9-11,11.4C334,323,334,333.5,334,344.6z M112.4,343.1c0-10.6,1.1-20.7-0.5-30.3c-0.6-3.7-7.3-8.9-11.1-8.8
		c-3.8,0.1-10,5.6-10.7,9.5c-1.6,9.6-0.5,19.6-0.5,29.6C97.8,343.1,104.7,343.1,112.4,343.1z M161.3,343.1c0-10.8,1.1-20.4-0.5-29.6
		c-0.7-3.9-6.8-9.4-10.5-9.5c-3.9-0.1-10.6,5.1-11.3,8.8c-1.6,9.6-0.5,19.7-0.5,30.3C146.3,343.1,153.3,343.1,161.3,343.1z
		 M210.2,343.2c0-10.6,1-20.6-0.5-30.3c-0.6-3.7-7.2-9-10.9-8.9c-3.9,0.1-10.2,5.4-10.9,9.3c-1.6,9.6-0.5,19.6-0.5,29.9
		C195.6,343.2,202.6,343.2,210.2,343.2z"/>
</g>
</svg>
