<?xml version="1.0" encoding="utf-8"?>
<!-- Generator: Adobe Illustrator 18.0.0, SVG Export Plug-In . SVG Version: 6.00 Build 0)  -->
<!DOCTYPE svg PUBLIC "-//W3C//DTD SVG 1.1//EN" "http://www.w3.org/Graphics/SVG/1.1/DTD/svg11.dtd">
<svg version="1.1" id="Layer_1" xmlns="http://www.w3.org/2000/svg" xmlns:xlink="http://www.w3.org/1999/xlink" x="0px" y="0px"
	 viewBox="0 0 682 688" enable-background="new 0 0 682 688" xml:space="preserve">
<g>
	<path fill="#FFFFFF" d="M420.1,472.5c19.5-26.5,39.4-16.4,59-43c-1.3,5-0.8,8-0.5,9.1c4.7,22.4,31.6,18,53.9,12.8
		c19.8-4.7,34-17.1,45.5-33.1c14.3-20,21.7-42.7,25.2-66.7c6.5-44.1,3.6-87.6-12.3-129.4C563.4,150.1,510.7,105.8,436.2,89
		c-91.7-20.7-174.5,1.3-247.4,59.4c-57.3,45.7-95.2,104.5-109.8,176.6c-15.1,74.4-2.5,143.5,45.6,203.8
		c35.5,44.7,82.6,71,138.5,81.2c68,12.4,131.7-0.5,191.2-34.9c6.1-3.5,11.9-3.3,17.6,0.3c9.4,5.8,9.3,17.6-0.1,23.3
		c-30.9,18.4-63.9,31.6-99.1,39.1c-59.4,12.8-117.8,9.7-173.7-14.6c-82.5-35.9-133.1-98.9-151.4-186.8
		c-13.6-65.3-4.3-128.6,24.7-188.1c48.2-98.9,126-163.2,233.1-189.6c64.1-15.8,127.6-11.5,187.8,16.5
		c75.5,35.1,121.8,94.9,140.1,175.8c12.1,53.5,9.2,106.7-11.3,158c-15.7,39.5-41.5,71-79.9,90.6c-27.9,14.3-57.3,19.7-88.3,11.3
		C445.2,508.6,414.8,497.6,420.1,472.5z"/>
	<path fill="#FFFFFF" d="M219.3,290.3c9.8-6.5,19.5-14,30.1-20c17.5-9.9,36.4-15.7,56.8-15.2c9,0.2,17.8,1.6,26.2,5.3
		c16,7,24.2,19.7,26.4,37.5c2.9-2.9,5.3-5.4,7.9-7.7c21.5-19.5,46.2-32.2,75.5-34.8c10.7-0.9,21.2,0,31.5,3.1
		c18.4,5.7,29.2,20.2,30.3,40c0.9,14.3-2.4,27.9-5.3,41.7c-9.3,43.8-18.6,87.5-27.8,131.3c-3.5,16.5-0.2,28.1-16,28.4
		c-13.9,0.3-33.7-9.8-35.1-23.4c2.1-13,2.6-26.1,5.3-39c6.8-32.5,13.8-64.9,20.5-97.4c0.9-4.5,1.1-9.3,0.8-14
		c-1.2-14.5-9.7-22.6-24.2-24c-12.5-1.2-24.1,1.7-35.2,7c-10.8,5.1-20.5,11.9-28.8,20.5c-1.7,1.7-3.1,4.2-3.7,6.6
		c-9.8,45.8-19.5,91.6-29.2,137.3c-3,14-16.1,25.6-29.8,26.3c-16.3,0.9-26.1-10.4-22.7-26.4c9.1-43.1,18.4-86.2,27.4-129.3
		c1.3-6.3,1.7-12.9,1.3-19.3c-0.8-11.7-7.8-19.2-19.2-21.9c-14.7-3.4-28.4,0.2-41.5,6.8c-10.4,5.2-19.8,12.1-27.8,20.6
		c-1.5,1.6-2.7,3.8-3.2,6c-9.8,45.8-19.5,91.6-29.2,137.4c-3,14-16.4,25.5-30.5,26.1c-15.6,0.7-25.3-10.6-22.1-25.8
		c7.9-37.9,16-75.7,24.1-113.5c5.4-25.3,10.8-50.6,16.1-76c3.4-16.3,18.5-27.6,35.1-26.3c12.3,1,20.2,12.4,17.6,25.4
		C220.2,286.2,219.7,288.7,219.3,290.3z"/>
</g>
</svg>
