<?xml version="1.0" encoding="utf-8"?>
<!-- Generator: Adobe Illustrator 18.0.0, SVG Export Plug-In . SVG Version: 6.00 Build 0)  -->
<!DOCTYPE svg PUBLIC "-//W3C//DTD SVG 1.1//EN" "http://www.w3.org/Graphics/SVG/1.1/DTD/svg11.dtd">
<svg version="1.1" id="Layer_1" xmlns="http://www.w3.org/2000/svg" xmlns:xlink="http://www.w3.org/1999/xlink" x="0px" y="0px"
	 viewBox="0 0 612 570.1" enable-background="new 0 0 612 570.1" xml:space="preserve">
<g>
	<path fill="#5E5E5E" d="M212.1,487.3c-13,13-25.4,25.3-37.7,37.7c-2,2-3.6,2.7-6.5,1.6c-37.7-14.7-75.4-29.2-113.1-43.7
		c-0.9-0.3-1.8-0.8-2.9-1.3c25.7-25.7,51.2-51.1,77.7-77.6c-4.9-4.5-9.2-8.1-13.2-12c-9.9-9.8-10-21.2-0.1-31.2
		c16.1-16.2,32.3-32.3,48.4-48.5c1.8-1.8,3.5-4.1,4.5-6.4c21.4-47.7,42.6-95.4,64-143.1c1.3-3,3.4-5.8,5.7-8.1
		c39.3-39.4,78.7-78.8,118.1-118.1c8.1-8.1,15.9-9.9,24.7-5.9c9.9,4.5,13.9,18.1,7.9,27.2c-1.6,2.5-3.6,4.8-5.7,6.9
		C369.8,79,355.5,93.2,341.6,107c55.7,55.7,111.3,111.3,167.4,167.4c5.2-5.2,10.9-11.2,16.8-16.9c7.1-6.9,15.1-8.5,23.3-4.8
		c10.2,4.6,14.3,18.1,8.1,27.5c-1.4,2.1-2.9,4.1-4.7,5.8c-30.5,30.6-60.9,61.1-91.6,91.6c-2.4,2.4-5.6,4.2-8.7,5.6
		c-46.9,21.1-93.9,42-140.8,63.1c-3.1,1.4-6.1,3.5-8.5,5.9c-15.8,15.6-31.4,31.3-47.1,47c-10.6,10.6-21.6,10.6-32.3,0
		C220,495.4,216.3,491.5,212.1,487.3z M257.8,204c-0.9,1.7-1.7,3.3-2.4,4.9c-17.2,38.4-34.3,76.9-51.6,115.2
		c-2.2,4.9-5.5,9.5-9.3,13.4c-11.3,11.8-23,23.2-34.5,34.7c-1.2,1.2-2.4,2.6-3,3.2c28.1,28.1,55.7,55.7,83.6,83.6
		c0.9-0.9,2.2-2.1,3.5-3.3c11.1-11.1,21.9-22.4,33.3-33.1c4.8-4.5,10.3-8.5,16.3-11.2c37.8-17.3,75.9-34.1,113.8-51.1
		c1.6-0.7,3.1-1.5,4.6-2.2C360.5,306.7,309.4,255.6,257.8,204z M313.5,136.8c-11.1,11-22.2,21.9-32.8,32.4
		c55.4,55.4,111,111,165.7,165.7c10.9-10.6,22.1-21.6,33-32.2C424,247.4,368.5,191.9,313.5,136.8z"/>
</g>
</svg>
