<?xml version="1.0" encoding="iso-8859-1"?>
<!-- Generator: Adobe Illustrator 18.0.0, SVG Export Plug-In . SVG Version: 6.00 Build 0)  -->
<!DOCTYPE svg PUBLIC "-//W3C//DTD SVG 1.1//EN" "http://www.w3.org/Graphics/SVG/1.1/DTD/svg11.dtd">
<svg version="1.1" id="Layer_1" xmlns="http://www.w3.org/2000/svg" xmlns:xlink="http://www.w3.org/1999/xlink" x="0px" y="0px"
	 viewBox="0 0 600 600" style="enable-background:new 0 0 600 600;" xml:space="preserve">
<g>
	<path style="fill:#5E5F5F;" d="M541.269,139.144l-81.069-81.072c-10.535-10.535-26.898-11.254-36.546-1.606L109.212,370.907
		c-4.83,4.829-7.062,11.34-6.766,17.959c0,0,107.923,107.561,108.049,108.029c6.613,0.291,13.115-1.941,17.94-6.767l314.44-314.441
		C552.522,166.04,551.804,149.679,541.269,139.144z M462.159,119.936L182.337,399.758c-6.299,6.298-16.854,5.954-23.575-0.768
		c-6.722-6.723-7.066-17.276-0.767-23.574L437.817,95.594c6.298-6.298,16.853-5.954,23.574,0.767
		C468.113,103.083,468.457,113.638,462.159,119.936z"/>
	<polygon style="fill:#5E5F5F;" points="49.542,549.798 134.923,526.184 73.075,464.718 	"/>
</g>
</svg>
