<?xml version="1.0" encoding="utf-8"?>
<!-- Generator: Adobe Illustrator 18.0.0, SVG Export Plug-In . SVG Version: 6.00 Build 0)  -->
<!DOCTYPE svg PUBLIC "-//W3C//DTD SVG 1.1//EN" "http://www.w3.org/Graphics/SVG/1.1/DTD/svg11.dtd">
<svg version="1.1" id="Layer_1" xmlns="http://www.w3.org/2000/svg" xmlns:xlink="http://www.w3.org/1999/xlink" x="0px" y="0px"
	 viewBox="0 0 532.5 382.5" enable-background="new 0 0 532.5 382.5" xml:space="preserve">
<g>
	<path fill="#5E5F5F" d="M212.7,18.4c-81.4,3.1-76.8,70.7-76.8,80.3c2.4,60,33.6,103.2,33.6,103.2s-2.4,14.4-2.4,38.4
		C37.5,271.4,19.5,314.6,19.5,314.6v49.2h193.2h1.2h193.2v-49.2c0,0-18-43.2-147.6-74.4c0-24-2.4-38.4-2.4-38.4
		s31.2-43.2,33.6-103.2c0-9.5,4.7-77.2-76.8-80.3"/>
	<path fill="#5E5F5F" d="M399.2,93.7c50.3,1.9,47.4,43.7,47.4,49.6c-1.5,37-20.7,63.7-20.7,63.7s1.5,8.9,1.5,23.7
		c80,19.3,91.1,45.9,91.1,45.9V307h-74.5l0,0c1.1,3.2-19.4-44.1-98.7-69c0,0,17.3-5.5,25-7.4c0-14.8,1.5-23.7,1.5-23.7
		s-19.3-26.7-20.7-63.7c0-5.9-2.9-47.7,47.4-49.6H399.2z"/>
</g>
</svg>
